<!DOCTYPE svg PUBLIC "-//W3C//DTD SVG 1.1//EN" "http://www.w3.org/Graphics/SVG/1.1/DTD/svg11.dtd">
<!-- Uploaded to: SVG Repo, www.svgrepo.com, Transformed by: SVG Repo Mixer Tools -->
<svg fill="#000000" version="1.1" id="Capa_1" xmlns="http://www.w3.org/2000/svg" xmlns:xlink="http://www.w3.org/1999/xlink" width="193px" height="193px" viewBox="-4.5 -4.5 54.00 54.00" xml:space="preserve" stroke="#000000" stroke-width="0.00045000000000000004" transform="matrix(1, 0, 0, 1, 0, 0)rotate(0)">
<g id="SVGRepo_bgCarrier" stroke-width="0" transform="translate(3.8249999999999993,3.8249999999999993), scale(0.83)">
<rect x="-4.5" y="-4.5" width="54.00" height="54.00" rx="27" fill="#ffffff" strokewidth="0"/>
</g>
<g id="SVGRepo_iconCarrier"> <g> <g> <path d="M22.5,0C10.093,0,0,10.095,0,22.5C0,34.905,10.093,45,22.5,45S45,34.905,45,22.5C45,10.095,34.907,0,22.5,0z M39.208,34.098H32.18l-2.67-2.976l-0.293-5.585l3.61-4.456l4.455-2.176l5.552,4.038C42.744,27.081,41.422,30.918,39.208,34.098z M12.819,34.098H5.792c-2.214-3.18-3.536-7.017-3.625-11.153l5.552-4.04l4.455,2.177l3.611,4.456l-0.293,5.585L12.819,34.098z M38.686,10.201l-2.174,6.698l-4.479,2.184l-5.383-1.44l-3.08-4.748V7.393L29.204,3.3C33.005,4.631,36.287,7.058,38.686,10.201z M15.796,3.3l5.632,4.093v5.502l-3.079,4.748l-5.382,1.44l-4.479-2.188l-2.173-6.693C8.711,7.058,11.994,4.631,15.796,3.3z M16.641,41.986l-2.134-6.563l2.66-2.96l5.226-2.043l5.445,2.048l2.653,2.956l-2.132,6.563c-1.857,0.561-3.821,0.869-5.859,0.869 C20.463,42.855,18.499,42.548,16.641,41.986z"/> </g> </g> </g>
</svg>